<svg xmlns="http://www.w3.org/2000/svg" xmlns:xlink="http://www.w3.org/1999/xlink" viewBox="0 0 14.17 10.43"><defs><style>.cls-1{fill:#1d1d1b;}.cls-1,.cls-2,.cls-3{fill-rule:evenodd;}.cls-2{fill:url(#Degradado_sin_nombre_3);}.cls-3{fill:#fff;}</style><linearGradient id="Degradado_sin_nombre_3" y1="5.13" x2="13.31" y2="5.13" gradientUnits="userSpaceOnUse"><stop offset="0.15" stop-color="#f8f2b1"/><stop offset="0.16" stop-color="#f7efad"/><stop offset="0.18" stop-color="#f5e6a0"/><stop offset="0.19" stop-color="#f0d78a"/><stop offset="0.21" stop-color="#eac26c"/><stop offset="0.23" stop-color="#e3a746"/><stop offset="0.25" stop-color="#da891a"/><stop offset="0.28" stop-color="#f2bb4d"/><stop offset="0.51" stop-color="#c9a66e"/><stop offset="0.55" stop-color="#cbaa72"/><stop offset="0.59" stop-color="#d3b67c"/><stop offset="0.62" stop-color="#dfc98e"/><stop offset="0.66" stop-color="#f0e4a7"/><stop offset="0.68" stop-color="#f9f2b3"/><stop offset="0.73" stop-color="#f8f0b1"/><stop offset="0.75" stop-color="#f6ebaa"/><stop offset="0.77" stop-color="#f2e19f"/><stop offset="0.78" stop-color="#edd38e"/><stop offset="0.79" stop-color="#e6c178"/><stop offset="0.8" stop-color="#ddab5c"/><stop offset="0.8" stop-color="#d2913d"/><stop offset="0.81" stop-color="#c67418"/><stop offset="0.81" stop-color="#c57014"/><stop offset="1" stop-color="#f9f0af"/></linearGradient></defs><title>iso-logo</title><g id="Capa_2" data-name="Capa 2"><g id="Capa_1-2" data-name="Capa 1"><path class="cls-1" d="M12.59,1.65C11.18,1.22,9.09,2,7.7,3.26c.33-.58,1.07-1,1.19-1.68A1.05,1.05,0,0,0,8.07.37a1.24,1.24,0,0,0-1.59.91C4.42-.42.53.47.53,3.7c0,3.72,5.18,5.07,6.74,6.73,1.49-1.3,4.87-2.36,6.14-4.6h0C14.93,3.6,13.93,2.06,12.59,1.65Z"/><path class="cls-2" d="M6.74,1.92c0-.6,0-1.19.83-1.37.86.06.39.35.4.84S6.73,3.08,6.21,4.17C5.4,4.54,9.07,1.82,11.09,2c1.52.21,2.84,1.32,1.92,3.28-1.14,2.44-4.73,3.53-6.27,4.88C5.18,8.46,0,7.11,0,3.39S5.14-.94,6.74,1.92Z"/><path class="cls-3" d="M12.87,5.53C13.9.87,7.61,3,5.73,5.05A2.52,2.52,0,0,1,6,3.35,5.3,5.3,0,0,1,7.21,2.27C7.51,2,8.3,1,7.67.76s-1.14.81-.62.91l-.6.55a1.36,1.36,0,0,1-.53-.72A1.27,1.27,0,0,1,7.54.06a1,1,0,0,1,.81,1.21C8.23,1.94,7.5,2.37,7.16,3c1.39-1.26,3.48-2,4.9-1.61S14.4,3.3,12.87,5.53Z"/><polygon class="cls-3" points="5.75 1.78 6.16 2.08 5.38 2.7 5.75 1.78"/></g></g></svg>